<svg width="1687" height="376" viewBox="0 0 1687 376" fill="none" xmlns="http://www.w3.org/2000/svg">
<g clip-path="url(#clip0_8_67)">
<path opacity="0.2" d="M823.71 220.09C843.725 220.09 859.95 203.865 859.95 183.85C859.95 163.835 843.725 147.61 823.71 147.61C803.695 147.61 787.47 163.835 787.47 183.85C787.47 203.865 803.695 220.09 823.71 220.09Z" fill="white"/>
<path d="M823.71 224.14C845.962 224.14 864 206.102 864 183.85C864 161.598 845.962 143.56 823.71 143.56C801.458 143.56 783.42 161.598 783.42 183.85C783.42 206.102 801.458 224.14 823.71 224.14Z" stroke="white" stroke-miterlimit="10"/>
<path d="M823.71 197.67C831.343 197.67 837.53 191.483 837.53 183.85C837.53 176.217 831.343 170.03 823.71 170.03C816.077 170.03 809.89 176.217 809.89 183.85C809.89 191.483 816.077 197.67 823.71 197.67Z" fill="white"/>
<path d="M113 374L586.457 371.127C597.286 371.057 606.031 360.701 606.031 347.942L611.754 205.808C611.754 193.198 620.424 182.982 631.125 182.982H1101.45C1112.02 182.982 1120.58 172.896 1120.58 160.445V18.2017C1120.58 9.25284 1126.73 2 1134.32 2H1541" stroke="white" stroke-width="3" stroke-miterlimit="10"/>
<path d="M116.41 353H300.88C302.76 353 304.29 354.53 304.29 356.41V360.88C304.29 362.76 302.76 364.29 300.88 364.29H113.47C113.21 364.29 113 364.08 113 363.82V356.41C113 354.53 114.53 353 116.41 353Z" fill="white"/>
<g clip-path="url(#clip1_8_67)">
<path d="M1537.88 21.29L1353.41 21.29C1351.52 21.29 1350 19.76 1350 17.88V13.41C1350 11.53 1351.53 9.99998 1353.41 9.99998L1540.82 9.99998C1541.08 9.99998 1541.29 10.21 1541.29 10.47V17.88C1541.29 19.76 1539.76 21.29 1537.88 21.29Z" fill="white"/>
</g>
</g>
<defs>
<clipPath id="clip0_8_67">
<rect width="1686.71" height="375.88" fill="white"/>
</clipPath>
<clipPath id="clip1_8_67">
<rect width="191.29" height="11.29" fill="white" transform="translate(1350 10)"/>
</clipPath>
</defs>
</svg>
